<?xml version="1.0" encoding="UTF-8" standalone="no"?>
<!DOCTYPE svg PUBLIC "-//W3C//DTD SVG 20010904//EN" "http://www.w3.org/TR/2001/REC-SVG-20010904/DTD/svg10.dtd">

<svg xmlns="http://www.w3.org/2000/svg"
  width="14.2222in" height="10.6667in"
  viewBox="0 0 960 863">
  <path id="Selection"
    fill="#e6ccb2" stroke="black" stroke-width="0"
    d="M 345.00,477.00
           C 345.00,477.00 324.00,477.00 324.00,477.00
             319.77,476.99 315.07,476.84 311.00,475.54
             292.68,469.70 293.82,447.26 294.00,432.00
             294.00,432.00 296.72,413.00 296.72,413.00
             299.12,394.74 305.39,370.05 310.29,352.00
             310.29,352.00 318.18,324.00 318.18,324.00
             318.39,322.21 318.70,320.84 318.18,319.00
             318.18,319.00 310.38,299.00 310.38,299.00
             306.98,287.96 304.02,264.67 304.00,253.00
             303.98,237.48 303.36,220.24 306.24,205.00
             306.24,205.00 308.16,198.00 308.16,198.00
             308.16,198.00 314.29,175.00 314.29,175.00
             329.15,132.17 359.54,91.81 397.00,66.22
             406.47,59.75 416.41,53.68 427.00,49.19
             492.71,21.33 571.98,32.59 625.02,81.30
             633.74,89.30 634.85,94.62 638.32,97.44
             642.35,100.71 646.64,98.61 649.35,104.06
             652.20,109.78 653.58,119.63 652.82,126.00
             652.41,129.39 650.91,132.53 651.25,136.00
             652.80,152.27 671.58,156.88 685.00,157.00
             685.00,157.00 682.00,165.00 682.00,165.00
             684.15,165.00 689.98,164.76 691.70,165.60
             694.32,166.88 694.15,169.89 691.70,171.35
             688.82,173.08 682.04,172.85 678.00,174.00
             692.85,179.57 697.29,172.29 709.00,172.00
             708.92,174.35 709.07,176.52 707.40,178.43
             705.07,181.11 700.32,181.69 697.00,182.25
             691.02,183.25 676.16,184.51 671.74,179.49
             670.10,177.63 670.14,175.31 670.00,173.00
             666.91,172.97 658.49,172.83 660.66,167.30
             661.59,164.91 666.63,164.68 669.00,164.00
             659.22,163.33 649.40,156.81 645.00,148.00
             642.17,142.34 643.87,139.58 641.40,136.13
             639.77,133.85 636.42,132.13 634.17,130.31
             634.17,130.31 619.00,118.19 619.00,118.19
             603.20,107.45 587.65,103.02 569.00,100.72
             569.00,100.72 553.00,99.00 553.00,99.00
             542.51,98.88 540.50,99.91 531.00,100.83
             531.00,100.83 515.00,102.30 515.00,102.30
             515.00,102.30 505.00,104.54 505.00,104.54
             505.00,104.54 497.00,105.79 497.00,105.79
             488.15,108.30 474.13,115.66 466.00,120.31
             440.71,134.78 413.65,159.17 393.87,180.61
             393.87,180.61 372.80,204.96 372.80,204.96
             370.25,207.91 365.76,211.75 361.47,209.43
             357.44,207.24 363.93,200.29 365.58,198.28
             365.58,198.28 390.17,170.00 390.17,170.00
             409.19,148.97 437.16,125.42 461.85,111.13
             474.39,103.87 489.27,96.04 504.00,96.00
             504.00,96.00 501.04,67.00 501.04,67.00
             501.79,54.07 521.76,50.62 532.00,49.29
             536.39,48.72 537.26,49.35 542.00,48.00
             530.94,45.51 510.99,41.61 500.00,42.04
             492.91,42.31 485.95,43.47 479.00,44.68
             479.00,44.68 466.00,46.47 466.00,46.47
             466.00,46.47 440.00,54.60 440.00,54.60
             416.28,64.23 393.25,79.13 374.99,97.04
             340.93,130.42 317.13,179.60 312.17,227.00
             312.17,227.00 311.03,240.00 311.03,240.00
             311.03,240.00 311.83,248.00 311.83,248.00
             313.42,264.56 314.50,276.66 318.67,293.00
             321.25,303.13 327.61,312.32 328.63,315.00
             329.08,317.03 329.07,319.89 328.63,322.00
             328.63,322.00 319.49,354.00 319.49,354.00
             312.39,380.40 304.11,411.87 302.18,439.00
             301.72,445.57 304.45,457.97 309.22,462.67
             313.17,466.57 323.53,469.52 329.00,469.65
             329.00,469.65 339.00,468.42 339.00,468.42
             342.66,467.92 345.60,468.18 349.00,466.43
             357.51,462.08 363.59,451.76 368.84,444.00
             368.84,444.00 384.36,422.00 384.36,422.00
             385.44,420.27 386.86,418.07 386.99,416.00
             387.14,413.47 382.43,401.20 381.35,398.00
             381.35,398.00 375.81,382.18 375.81,382.18
             373.62,378.03 367.84,374.95 364.00,372.28
             358.80,368.67 345.50,358.35 341.98,353.83
             332.49,341.67 327.97,321.95 331.35,307.00
             332.65,301.23 333.20,296.96 337.48,292.44
             347.06,282.31 357.10,281.85 370.00,282.00
             388.63,282.22 388.15,290.62 401.00,287.08
             404.53,286.10 416.09,281.60 418.63,279.36
             422.95,275.55 431.76,257.76 441.08,250.04
             449.81,242.81 468.87,229.68 479.00,225.03
             490.13,219.91 495.45,220.94 507.00,213.46
             526.32,200.96 530.15,180.68 555.00,181.00
             563.92,181.12 578.15,186.29 586.00,190.59
             590.37,192.98 599.29,199.07 604.00,198.35
             604.00,198.35 611.00,196.62 611.00,196.62
             615.60,195.76 620.34,195.99 625.00,196.00
             627.57,196.00 630.51,195.91 633.00,196.55
             633.00,196.55 660.00,211.67 660.00,211.67
             666.41,214.87 666.70,212.14 671.00,212.89
             675.03,213.59 677.09,216.87 688.00,217.00
             690.82,217.03 696.39,216.62 698.68,218.17
             699.69,218.86 700.37,219.79 700.37,221.05
             700.37,225.48 693.92,224.99 691.00,225.00
             691.00,225.00 687.00,225.00 687.00,225.00
             677.23,224.88 677.01,222.50 669.00,221.00
             668.50,231.94 664.14,247.98 659.69,258.00
             656.91,264.28 649.94,276.14 648.95,282.00
             647.56,290.19 651.89,302.65 652.00,312.00
             652.13,323.41 651.93,334.90 648.91,346.00
             648.91,346.00 642.29,364.00 642.29,364.00
             642.29,364.00 634.66,399.00 634.66,399.00
             634.66,399.00 628.41,425.00 628.41,425.00
             628.41,425.00 621.43,441.00 621.43,441.00
             621.43,441.00 620.83,453.00 620.83,453.00
             620.83,453.00 618.42,469.00 618.42,469.00
             618.42,469.00 616.83,482.00 616.83,482.00
             615.52,489.15 611.24,498.12 611.03,498.99
             610.20,502.51 613.16,505.38 615.06,508.04
             622.80,518.86 623.79,519.67 637.00,522.79
             637.00,522.79 648.00,526.23 648.00,526.23
             648.00,526.23 697.00,541.92 697.00,541.92
             711.39,546.90 732.22,553.64 745.00,561.27
             768.28,575.17 788.16,598.99 806.17,619.00
             809.10,622.26 818.38,631.56 819.99,635.00
             821.14,637.47 821.11,641.45 818.58,643.12
             814.95,645.52 809.92,637.29 807.84,634.80
             807.84,634.80 777.88,602.42 777.88,602.42
             765.69,588.96 748.20,573.87 732.00,565.49
             719.17,558.85 684.95,547.71 670.00,543.04
             670.00,543.04 629.00,531.00 629.00,531.00
             636.57,547.07 641.54,564.04 646.57,581.00
             646.57,581.00 654.81,616.00 654.81,616.00
             654.81,616.00 656.68,624.00 656.68,624.00
             656.68,624.00 659.09,652.00 659.09,652.00
             659.09,652.00 660.00,662.00 660.00,662.00
             660.12,672.81 658.78,699.09 656.24,709.00
             655.56,711.66 653.23,721.66 651.44,722.98
             647.01,726.25 637.41,721.29 633.00,719.73
             633.00,719.73 624.00,716.55 624.00,716.55
             615.51,714.43 599.24,715.00 590.00,715.00
             592.34,723.00 593.90,730.62 594.00,739.00
             594.04,742.68 594.37,748.69 592.69,751.91
             590.62,755.87 576.35,766.33 572.00,769.80
             572.00,769.80 509.00,817.88 509.00,817.88
             505.23,820.79 496.46,828.08 492.72,829.94
             492.72,829.94 487.00,832.07 487.00,832.07
             483.22,833.75 481.55,835.83 477.00,835.90
             472.35,835.98 468.87,833.48 465.00,831.28
             465.00,831.28 443.00,817.12 443.00,817.12
             418.06,799.64 396.37,775.76 387.93,746.00
             385.86,738.72 385.04,736.84 385.00,729.00
             385.00,729.00 385.00,708.00 385.00,708.00
             385.00,708.00 322.00,711.00 322.00,711.00
             311.49,710.87 295.55,707.68 287.01,701.49
             268.27,687.89 271.92,669.72 274.08,650.00
             274.08,650.00 274.08,643.00 274.08,643.00
             274.08,643.00 275.82,636.00 275.82,636.00
             275.82,636.00 278.30,609.00 278.30,609.00
             278.30,609.00 279.83,601.00 279.83,601.00
             279.83,601.00 282.18,575.00 282.18,575.00
             282.18,575.00 283.82,567.00 283.82,567.00
             283.82,567.00 285.55,552.00 285.55,552.00
             285.55,552.00 297.00,524.00 297.00,524.00
             287.72,526.93 283.59,532.14 277.00,534.68
             277.00,534.68 262.00,539.80 262.00,539.80
             257.44,541.53 255.30,543.55 250.09,543.85
             245.38,544.11 242.82,543.69 238.00,545.46
             238.00,545.46 203.00,563.50 203.00,563.50
             188.79,569.64 164.69,576.38 152.00,584.80
             146.55,588.41 130.59,603.67 125.00,608.91
             125.00,608.91 82.09,650.00 82.09,650.00
             78.16,654.41 78.99,655.62 75.97,659.24
             75.97,659.24 56.76,680.20 56.76,680.20
             54.58,682.26 51.55,684.33 49.00,685.95
             45.36,688.25 34.26,693.82 36.33,684.00
             37.25,679.65 45.66,672.34 49.00,669.00
             49.00,669.00 83.20,635.40 83.20,635.40
             83.20,635.40 119.04,600.91 119.04,600.91
             119.04,600.91 147.28,575.90 147.28,575.90
             160.14,567.68 179.68,562.43 194.00,556.69
             194.00,556.69 238.00,535.92 238.00,535.92
             238.00,535.92 287.00,517.88 287.00,517.88
             287.00,517.88 320.00,496.19 320.00,496.19
             326.25,491.90 341.68,483.04 345.00,477.00 Z
           M 599.00,74.00
           C 594.24,68.69 578.90,60.98 572.00,58.07
             568.55,56.62 564.82,54.79 561.00,55.27
             553.89,56.18 557.25,56.88 547.00,57.00
             536.69,57.12 518.91,59.15 511.00,66.00
             517.73,67.91 543.31,66.99 552.00,67.00
             552.00,67.00 578.00,69.37 578.00,69.37
             578.00,69.37 599.00,74.00 599.00,74.00 Z
           M 644.00,126.00
           C 644.00,121.49 644.28,115.07 641.86,111.11
             639.64,107.46 637.18,107.69 634.01,105.87
             630.75,103.99 629.97,102.26 627.72,100.58
             627.72,100.58 621.17,97.21 621.17,97.21
             621.17,97.21 605.00,86.98 605.00,86.98
             599.61,84.40 583.79,79.37 578.00,78.26
             578.00,78.26 566.00,76.68 566.00,76.68
             566.00,76.68 559.00,75.05 559.00,75.05
             559.00,75.05 550.00,75.05 550.00,75.05
             550.00,75.05 538.00,74.00 538.00,74.00
             538.00,74.00 520.00,74.96 520.00,74.96
             517.70,75.07 513.58,74.58 512.03,76.60
             509.50,79.88 513.94,86.27 515.00,93.00
             515.00,93.00 548.00,91.00 548.00,91.00
             568.42,90.97 589.09,92.90 608.00,101.17
             614.38,103.96 624.11,109.82 629.58,114.09
             629.58,114.09 644.00,126.00 644.00,126.00 Z
           M 674.00,165.00
           C 674.00,165.00 669.00,166.00 669.00,166.00
             669.00,166.00 674.00,165.00 674.00,165.00 Z
           M 685.00,204.00
           C 675.97,200.03 679.44,197.10 679.33,192.00
             679.29,190.02 678.09,186.85 681.24,185.65
             683.43,184.82 686.80,186.34 689.00,186.91
             692.33,187.77 700.55,188.91 704.00,188.99
             714.57,189.22 715.31,186.13 718.87,186.64
             723.04,187.24 721.61,191.36 719.69,193.57
             719.69,193.57 716.00,197.00 716.00,197.00
             721.52,204.85 711.19,203.63 704.00,206.00
             704.00,206.00 720.00,204.19 720.00,204.19
             721.81,204.09 724.59,204.11 725.26,206.27
             727.20,212.57 712.31,212.99 709.00,213.42
             695.42,215.22 681.89,214.65 670.01,207.24
             663.89,203.42 659.09,199.58 660.00,192.00
             669.95,192.81 673.07,204.66 685.00,204.00 Z
           M 622.00,282.00
           C 624.18,298.02 645.13,317.53 637.35,335.00
             634.53,341.34 627.22,346.84 621.42,350.36
             618.90,351.89 615.04,353.97 612.00,353.22
             606.54,351.87 603.29,342.78 595.01,344.41
             589.53,345.49 582.10,353.25 577.00,355.16
             573.41,356.50 568.84,355.76 567.08,351.95
             564.45,346.26 571.89,346.31 574.96,344.92
             579.94,342.66 586.93,333.20 599.00,334.10
             608.57,334.81 609.95,343.16 616.00,342.35
             621.02,341.68 631.36,332.37 630.51,325.00
             630.13,321.66 625.75,313.30 624.08,310.00
             624.08,310.00 612.96,287.00 612.96,287.00
             612.96,287.00 600.68,261.00 600.68,261.00
             599.52,257.19 599.42,251.27 605.02,252.30
             605.91,252.46 607.20,253.15 609.00,253.22
             613.88,253.40 619.89,249.31 636.00,252.32
             642.12,253.47 645.58,257.11 648.78,255.77
             651.19,254.76 652.19,251.23 653.06,249.00
             655.43,242.97 657.85,236.35 659.09,230.00
             659.63,227.85 660.38,224.62 659.09,222.69
             658.05,221.36 650.84,217.59 648.96,216.50
             641.68,212.27 631.34,204.22 623.00,204.18
             623.00,204.18 599.00,207.69 599.00,207.69
             595.03,207.10 587.78,202.14 584.00,200.04
             574.95,195.00 559.47,188.33 549.04,190.33
             543.00,191.49 537.93,196.73 533.93,201.01
             528.96,206.33 521.57,214.40 515.99,218.76
             503.69,228.38 496.06,227.70 483.00,233.66
             473.14,238.16 457.71,249.08 449.04,255.89
             442.35,261.15 437.48,268.94 432.84,276.00
             429.08,281.71 427.53,285.98 421.00,289.24
             413.00,293.23 401.98,297.39 393.00,296.96
             384.24,296.54 378.16,289.53 364.00,290.02
             359.89,290.16 358.74,290.77 355.00,292.27
             342.11,297.45 338.85,305.78 339.00,319.00
             339.10,327.34 344.33,341.45 349.53,347.96
             351.58,350.53 357.29,355.37 360.00,357.49
             360.00,357.49 381.37,373.37 381.37,373.37
             384.77,377.22 386.04,383.26 387.69,388.00
             387.69,388.00 391.95,400.00 391.95,400.00
             391.95,400.00 394.52,406.00 394.52,406.00
             394.52,406.00 398.00,420.00 398.00,420.00
             388.75,422.97 385.09,440.38 382.07,449.00
             382.07,449.00 369.38,479.00 369.38,479.00
             369.38,479.00 363.55,492.00 363.55,492.00
             359.10,504.49 358.79,509.21 357.91,522.00
             357.68,525.45 356.92,527.37 357.18,531.00
             357.18,531.00 359.30,557.00 359.30,557.00
             359.30,557.00 361.55,567.00 361.55,567.00
             366.63,592.26 374.81,620.96 386.51,644.00
             386.51,644.00 423.88,699.42 423.88,699.42
             423.88,699.42 430.30,711.00 430.30,711.00
             430.30,711.00 449.15,742.96 449.15,742.96
             449.15,742.96 470.30,779.00 470.30,779.00
             470.30,779.00 489.00,811.00 489.00,811.00
             489.00,811.00 492.00,811.00 492.00,811.00
             492.00,811.00 516.04,763.00 516.04,763.00
             516.04,763.00 554.02,689.00 554.02,689.00
             554.02,689.00 572.85,655.00 572.85,655.00
             572.85,655.00 583.46,634.91 583.46,634.91
             583.46,634.91 585.17,613.00 585.17,613.00
             585.17,613.00 586.70,605.00 586.70,605.00
             586.70,605.00 588.28,579.00 588.28,579.00
             588.28,579.00 581.41,549.00 581.41,549.00
             581.41,549.00 573.00,515.00 573.00,515.00
             556.90,517.12 561.19,514.32 549.00,512.30
             549.00,512.30 541.00,511.18 541.00,511.18
             512.84,505.23 481.31,488.77 457.00,473.53
             442.81,464.63 433.30,462.35 423.01,447.57
             417.30,439.36 412.37,426.75 410.04,417.00
             410.04,417.00 408.31,407.09 408.31,407.09
             408.31,407.09 405.55,399.96 405.55,399.96
             404.45,396.03 405.17,396.09 403.00,392.00
             406.52,389.78 410.01,386.72 413.40,391.15
             415.16,393.45 417.60,409.99 418.45,414.00
             420.85,425.34 427.94,441.66 436.17,449.83
             441.39,455.01 462.38,466.39 470.00,470.72
             493.33,483.98 521.22,499.18 548.00,503.41
             548.00,503.41 555.00,504.46 555.00,504.46
             559.82,505.67 561.03,507.42 567.00,506.82
             573.07,506.22 581.46,501.69 587.00,499.00
             587.00,499.00 603.95,490.44 603.95,490.44
             607.27,486.85 608.29,477.80 609.00,473.00
             609.00,473.00 611.72,458.00 611.72,458.00
             611.72,458.00 613.00,434.00 613.00,434.00
             588.72,434.00 573.22,432.61 551.00,421.34
             546.22,418.92 533.89,411.59 535.71,405.05
             537.42,398.90 552.59,399.31 558.00,398.91
             558.00,398.91 591.00,395.04 591.00,395.04
             591.00,395.04 607.00,397.57 607.00,397.57
             610.66,397.83 612.80,396.05 616.00,396.37
             618.37,396.61 622.60,398.94 625.00,400.00
             625.00,400.00 633.29,363.00 633.29,363.00
             638.47,343.08 644.27,339.57 644.00,316.00
             644.00,316.00 639.00,284.00 639.00,284.00
             639.00,284.00 622.00,282.00 622.00,282.00 Z
           M 702.00,197.00
           C 702.00,197.00 685.00,194.00 685.00,194.00
             688.52,199.48 696.72,200.42 702.00,197.00 Z
           M 525.00,247.22
           C 525.00,247.22 543.00,247.22 543.00,247.22
             545.14,247.04 547.63,246.95 549.26,248.60
             552.42,251.80 552.31,266.19 549.98,269.69
             547.70,273.09 538.77,272.99 535.00,273.00
             526.12,273.01 511.15,273.61 503.00,272.07
             498.59,271.23 493.06,269.83 494.33,264.01
             495.10,260.51 498.20,258.89 501.00,257.13
             507.57,253.01 517.38,248.91 525.00,247.22 Z
           M 510.00,264.21
           C 521.96,264.97 521.99,266.23 535.00,264.21
             538.07,264.00 543.14,264.12 543.46,259.95
             543.83,255.09 538.80,253.73 535.00,254.38
             527.59,255.64 515.41,258.82 510.00,264.21 Z
           M 640.00,275.00
           C 640.46,272.69 642.07,267.35 641.34,265.34
             640.44,262.86 637.29,261.83 635.00,261.08
             628.67,259.34 622.38,259.86 616.00,261.08
             616.60,263.93 617.22,267.32 619.00,269.79
             623.11,275.49 633.69,275.00 640.00,275.00 Z
           M 620.00,412.00
           C 615.33,404.17 615.49,405.02 605.00,405.00
             605.00,405.00 590.00,404.00 590.00,404.00
             590.00,404.00 576.00,404.98 576.00,404.98
             571.63,405.27 562.93,405.68 560.00,409.00
             570.02,406.56 579.91,409.98 590.00,410.00
             600.00,410.02 610.09,410.69 620.00,412.00 Z
           M 617.00,417.00
           C 617.00,417.00 584.00,416.00 584.00,416.00
             584.00,416.00 561.00,414.00 561.00,414.00
             563.94,418.79 568.98,419.14 574.00,420.86
             581.27,423.35 581.22,422.71 588.00,424.12
             598.91,426.38 611.03,429.47 617.00,417.00 Z
           M 361.00,475.00
           C 361.00,475.00 359.00,475.00 359.00,475.00
             346.98,492.11 341.23,492.75 325.00,504.97
             320.83,508.10 313.57,512.04 310.81,516.04
             310.81,516.04 302.21,536.00 302.21,536.00
             298.81,544.62 294.40,552.82 292.51,562.00
             292.51,562.00 289.82,591.00 289.82,591.00
             289.82,591.00 288.18,599.00 288.18,599.00
             288.18,599.00 285.82,625.00 285.82,625.00
             285.82,625.00 284.32,632.00 284.32,632.00
             284.32,632.00 282.97,646.00 282.97,646.00
             282.97,646.00 281.79,660.00 281.79,660.00
             281.32,663.43 280.14,665.07 280.06,669.00
             279.95,674.85 283.94,685.22 287.72,689.70
             299.91,704.12 328.00,702.03 345.00,702.00
             345.00,702.00 369.00,700.83 369.00,700.83
             369.00,700.83 379.00,699.09 379.00,699.09
             382.94,698.75 388.69,697.37 391.69,700.32
             395.42,704.00 393.60,710.43 393.17,715.00
             392.57,721.31 393.74,732.83 395.24,739.00
             402.51,769.04 426.14,794.44 451.00,811.39
             451.00,811.39 469.04,822.61 469.04,822.61
             471.35,823.90 474.26,825.85 477.00,825.56
             479.31,825.31 482.04,823.25 484.00,822.00
             482.38,815.20 476.49,807.23 472.86,801.00
             472.86,801.00 449.42,761.00 449.42,761.00
             449.42,761.00 429.30,727.00 429.30,727.00
             429.30,727.00 411.55,697.00 411.55,697.00
             411.55,697.00 378.49,648.00 378.49,648.00
             371.26,634.29 364.70,614.03 360.34,599.00
             352.17,570.90 345.15,536.22 350.46,507.00
             352.73,494.54 356.13,486.49 361.00,475.00 Z
           M 645.00,714.00
           C 649.88,703.68 652.02,676.93 652.00,665.00
             651.99,655.91 650.67,646.93 649.29,638.00
             649.29,638.00 647.38,623.00 647.38,623.00
             644.42,606.65 640.33,589.82 635.25,574.00
             635.25,574.00 627.54,552.00 627.54,552.00
             627.54,552.00 617.87,529.17 617.87,529.17
             617.87,529.17 607.46,518.02 607.46,518.02
             603.74,513.64 604.51,514.35 600.05,510.61
             594.70,506.27 592.97,506.50 587.02,510.61
             585.57,511.52 584.04,512.54 583.41,514.21
             582.52,515.99 582.94,524.99 583.41,527.00
             584.03,528.86 584.97,530.28 585.76,532.00
             588.44,537.78 592.39,556.03 593.81,563.00
             595.24,570.06 596.90,571.30 597.00,579.00
             597.00,579.00 594.09,610.00 594.09,610.00
             593.61,616.91 593.23,633.33 591.41,639.00
             589.94,643.59 585.68,650.50 583.22,655.00
             583.22,655.00 566.34,685.17 566.34,685.17
             566.34,685.17 532.44,750.72 532.44,750.72
             532.44,750.72 512.90,789.00 512.90,789.00
             509.75,795.39 505.62,802.12 504.00,809.00
             509.77,806.40 517.57,799.38 523.00,795.42
             523.00,795.42 567.00,761.63 567.00,761.63
             571.11,758.52 582.77,750.32 584.40,745.99
             585.14,744.02 585.02,740.18 585.00,738.00
             584.91,730.68 582.96,724.05 581.45,717.00
             580.80,713.92 580.64,709.94 583.31,707.74
             587.54,704.25 601.35,706.97 607.00,707.19
             607.00,707.19 624.00,707.19 624.00,707.19
             624.00,707.19 645.00,714.00 645.00,714.00 Z" />
</svg>
