<?xml version="1.0" encoding="UTF-8" standalone="no"?>
<!DOCTYPE svg PUBLIC "-//W3C//DTD SVG 20010904//EN"
              "http://www.w3.org/TR/2001/REC-SVG-20010904/DTD/svg10.dtd">

<svg xmlns="http://www.w3.org/2000/svg"
     width="14.2222in" height="10.6667in"
     viewBox="0 100 1024 768">
  <path id="Selection"
        fill="#e6ccb2" stroke="black" stroke-width="0"
        d="M 76.00,764.00
           C 76.60,757.29 79.51,750.25 82.00,744.00
             88.30,728.21 96.20,714.62 106.37,701.00
             131.39,667.51 165.49,641.42 203.00,623.26
             222.47,613.83 251.18,603.66 272.00,596.05
             272.00,596.05 313.00,582.14 313.00,582.14
             317.10,580.96 331.06,577.64 333.61,575.44
             335.88,573.48 338.73,566.97 340.43,564.00
             344.97,556.06 349.88,548.32 355.37,541.00
             355.37,541.00 366.09,528.00 366.09,528.00
             368.47,525.44 372.20,522.26 373.40,519.00
             374.12,517.06 374.00,514.09 374.00,512.00
             374.00,512.00 374.00,488.00 374.00,488.00
             374.00,488.00 374.91,476.00 374.91,476.00
             374.91,476.00 376.09,454.00 376.09,454.00
             376.09,454.00 379.10,430.00 379.10,430.00
             379.10,430.00 375.80,414.00 375.80,414.00
             374.34,406.55 372.09,390.33 372.00,383.00
             371.85,369.51 371.74,357.38 374.08,344.00
             374.08,344.00 382.63,311.00 382.63,311.00
             387.57,291.24 392.65,271.31 401.81,253.00
             406.44,243.73 412.42,235.26 418.63,227.00
             437.18,202.29 453.31,187.46 482.00,175.42
             499.21,168.21 523.39,162.06 542.00,164.06
             542.00,164.06 550.00,164.06 550.00,164.06
             563.37,165.93 577.76,170.18 590.00,175.77
             605.18,182.69 617.39,190.23 630.00,201.29
             645.40,214.79 654.04,229.67 662.30,248.00
             676.89,280.34 684.83,315.52 685.00,351.00
             685.00,351.00 686.00,368.00 686.00,368.00
             686.00,368.00 684.96,383.00 684.96,383.00
             684.96,383.00 684.96,399.00 684.96,399.00
             684.96,399.00 684.00,410.00 684.00,410.00
             684.00,410.00 683.09,423.00 683.09,423.00
             683.09,423.00 676.15,499.00 676.15,499.00
             676.15,499.00 670.37,543.00 670.37,543.00
             669.17,547.16 663.31,558.93 661.00,563.00
             661.00,563.00 689.00,579.80 689.00,579.80
             697.03,584.67 707.60,590.31 713.91,597.00
             728.69,612.68 743.39,639.80 751.19,660.00
             751.19,660.00 758.05,680.00 758.05,680.00
             758.05,680.00 771.57,716.00 771.57,716.00
             771.57,716.00 776.70,744.00 776.70,744.00
             776.70,744.00 789.00,768.00 789.00,768.00
             786.62,767.99 783.30,768.21 781.21,766.98
             778.66,765.47 777.05,761.58 775.75,759.00
             769.03,745.60 771.43,751.45 769.25,738.00
             765.82,716.90 761.67,710.05 754.42,691.00
             754.42,691.00 740.70,654.00 740.70,654.00
             740.70,654.00 725.00,623.00 725.00,623.00
             713.60,629.46 714.21,627.02 705.00,630.43
             705.00,630.43 676.00,641.58 676.00,641.58
             653.02,650.25 635.79,656.28 623.76,680.00
             620.73,685.97 618.45,691.42 617.01,698.00
             614.96,707.41 613.11,728.21 613.00,738.00
             613.00,738.00 612.09,751.00 612.09,751.00
             612.31,754.83 613.29,757.85 612.94,762.00
             612.77,764.01 611.58,768.53 608.57,766.83
             605.89,765.33 606.00,756.78 606.00,754.00
             606.00,754.00 606.00,748.00 606.00,748.00
             606.00,748.00 607.00,732.00 607.00,732.00
             607.00,732.00 608.72,710.00 608.72,710.00
             611.34,688.65 614.27,674.30 630.09,658.04
             643.19,644.57 657.19,640.97 674.00,634.58
             674.00,634.58 720.00,617.00 720.00,617.00
             720.00,617.00 705.00,599.21 705.00,599.21
             705.00,599.21 657.00,569.00 657.00,569.00
             650.75,581.13 627.35,606.36 616.96,616.17
             611.63,621.20 606.01,629.00 598.00,627.00
             603.56,615.67 611.01,612.54 618.83,604.00
             628.40,593.55 646.07,573.52 653.48,562.00
             653.48,562.00 664.37,538.00 664.37,538.00
             664.37,538.00 668.28,509.00 668.28,509.00
             668.28,509.00 675.09,445.00 675.09,445.00
             675.09,445.00 679.00,380.00 679.00,380.00
             679.00,380.00 679.92,367.00 679.92,367.00
             679.92,367.00 679.04,359.00 679.04,359.00
             679.04,359.00 679.04,348.00 679.04,348.00
             679.04,348.00 678.09,337.00 678.09,337.00
             675.68,304.00 666.23,271.48 651.24,242.00
             634.21,208.49 605.12,187.59 570.00,176.00
             551.39,169.86 538.23,168.15 519.00,172.00
             513.34,173.13 509.41,173.70 504.00,176.00
             511.85,177.87 515.50,182.58 528.00,183.83
             541.12,185.14 569.69,183.77 580.00,187.93
             589.33,191.69 595.21,200.17 603.00,206.10
             611.44,212.52 620.49,216.08 624.24,227.00
             626.00,232.14 626.03,233.57 623.00,238.00
             631.70,239.01 636.02,246.99 640.14,254.00
             649.32,269.61 656.07,288.90 657.83,307.00
             658.22,310.97 659.24,322.68 658.70,326.00
             658.40,327.82 657.29,332.42 654.45,330.83
             652.64,329.82 652.26,326.84 652.14,325.00
             652.14,325.00 652.14,320.00 652.14,320.00
             651.87,301.90 646.27,280.93 637.69,265.00
             637.69,265.00 627.14,248.00 627.14,248.00
             627.14,248.00 622.82,240.00 622.82,240.00
             622.82,240.00 619.09,234.17 619.09,234.17
             617.68,231.40 617.97,228.73 613.79,224.04
             610.16,219.96 601.73,214.71 597.00,211.10
             588.41,204.55 578.29,190.11 566.00,193.00
             566.00,193.00 577.00,198.00 577.00,198.00
             571.79,197.75 564.26,196.91 563.00,191.00
             563.00,191.00 548.00,192.00 548.00,192.00
             552.03,192.72 559.86,193.58 561.00,198.00
             566.36,198.71 574.55,199.10 579.00,202.00
             561.15,202.00 543.60,202.28 528.00,192.00
             528.00,192.00 552.00,195.00 552.00,195.00
             552.00,195.00 539.96,190.21 539.96,190.21
             539.96,190.21 518.00,190.21 518.00,190.21
             524.93,192.19 536.91,200.41 548.00,203.10
             548.00,203.10 582.00,205.53 582.00,205.53
             585.72,206.41 594.41,211.46 598.00,213.60
             604.03,217.20 608.63,220.06 611.00,227.00
             611.00,227.00 605.00,226.00 605.00,226.00
             600.93,228.34 599.02,226.07 595.00,224.45
             595.00,224.45 578.00,219.45 578.00,219.45
             559.04,215.57 561.19,218.29 548.00,217.99
             530.89,217.59 518.96,203.21 508.00,192.00
             512.28,199.97 519.16,209.70 527.00,214.39
             534.04,218.60 548.71,221.31 557.00,222.04
             563.77,222.70 568.11,223.96 575.00,222.04
             575.00,222.04 572.00,220.00 572.00,220.00
             580.15,221.83 599.78,226.78 605.89,231.64
             608.12,233.40 608.69,234.62 610.00,237.00
             610.00,237.00 585.00,231.08 585.00,231.08
             585.00,231.08 550.00,227.84 550.00,227.84
             550.00,227.84 529.00,224.15 529.00,224.15
             526.77,224.43 521.59,227.00 519.00,227.95
             519.00,227.95 502.00,233.33 502.00,233.33
             493.60,236.14 475.28,242.65 470.54,250.01
             466.41,256.42 475.40,257.10 478.69,260.41
             481.37,263.12 481.20,267.45 480.91,271.00
             480.28,278.73 475.03,285.26 470.25,291.00
             465.60,296.58 456.19,307.47 451.00,312.00
             451.19,292.68 470.11,285.10 473.98,271.00
             475.71,264.68 468.98,264.41 465.23,261.20
             462.11,258.54 461.70,254.88 462.11,251.00
             462.80,244.43 468.80,240.29 474.00,237.06
             482.11,232.03 511.21,222.23 521.00,220.00
             513.30,213.31 504.16,203.94 501.00,194.00
             493.90,197.06 490.47,199.42 484.00,203.13
             484.00,203.13 468.00,212.72 468.00,212.72
             447.45,227.11 432.99,247.08 423.28,270.00
             418.52,281.24 415.15,293.03 412.80,305.00
             412.25,307.82 411.96,315.14 408.01,315.14
             403.23,315.14 405.79,305.65 406.25,303.00
             408.23,291.58 412.25,277.74 416.60,267.00
             429.55,235.04 448.80,213.75 479.00,197.23
             485.48,193.68 489.67,190.09 497.00,188.00
             497.00,188.00 494.00,179.00 494.00,179.00
             483.91,181.37 470.63,188.88 462.00,194.67
             440.81,208.88 417.00,237.72 406.31,261.00
             396.58,282.18 393.86,296.16 388.12,318.00
             381.51,343.13 377.68,350.75 378.00,378.00
             378.11,387.41 380.70,403.56 382.60,413.00
             383.74,418.66 386.23,425.49 385.91,431.00
             385.91,431.00 383.15,449.00 383.15,449.00
             383.15,449.00 381.00,477.00 381.00,477.00
             381.00,477.00 380.19,491.00 380.19,491.00
             380.19,491.00 380.19,523.00 380.19,523.00
             380.19,523.00 390.00,555.00 390.00,555.00
             390.00,555.00 394.57,567.00 394.57,567.00
             395.30,571.34 389.82,583.67 388.29,589.00
             384.50,602.17 382.24,616.27 382.74,630.00
             383.10,639.77 383.07,644.13 385.00,654.00
             385.00,654.00 387.83,668.00 387.83,668.00
             387.83,668.00 394.72,733.00 394.72,733.00
             394.72,733.00 396.41,751.00 396.41,751.00
             396.80,753.85 397.59,760.15 396.41,762.73
             395.31,765.09 393.24,765.40 391.00,766.00
             391.00,766.00 388.17,734.00 388.17,734.00
             388.17,734.00 384.17,696.00 384.17,696.00
             384.17,696.00 381.70,671.00 381.70,671.00
             381.70,671.00 377.19,649.00 377.19,649.00
             377.19,649.00 377.19,638.00 377.19,638.00
             377.19,638.00 376.09,630.00 376.09,630.00
             376.09,630.00 377.04,619.00 377.04,619.00
             377.04,619.00 377.04,610.00 377.04,610.00
             377.04,610.00 381.48,587.00 381.48,587.00
             381.48,587.00 386.79,569.00 386.79,569.00
             386.79,569.00 382.67,556.00 382.67,556.00
             382.67,556.00 375.00,530.00 375.00,530.00
             365.02,540.07 357.28,550.89 350.00,563.00
             347.50,567.15 341.00,579.92 337.79,582.07
             337.79,582.07 318.00,588.02 318.00,588.02
             318.00,588.02 275.00,602.69 275.00,602.69
             224.19,620.77 185.73,635.40 144.00,671.42
             125.38,687.50 106.35,710.95 95.25,733.00
             95.25,733.00 88.20,748.00 88.20,748.00
             83.82,759.06 85.50,761.73 76.00,764.00 Z
           M 502.00,176.00
           C 502.00,176.00 497.00,177.00 497.00,177.00
             497.00,177.00 507.00,192.00 507.00,192.00
             507.00,192.00 510.00,189.00 510.00,189.00
             510.00,189.00 508.00,187.00 508.00,187.00
             508.00,187.00 510.00,187.00 510.00,187.00
             510.00,187.00 502.00,176.00 502.00,176.00 Z
           M 515.00,193.00
           C 515.00,193.00 514.00,193.00 514.00,193.00
             514.00,193.00 515.00,194.00 515.00,194.00
             515.00,194.00 515.00,193.00 515.00,193.00 Z
           M 520.00,193.00
           C 520.00,193.00 519.00,193.00 519.00,193.00
             519.00,193.00 520.00,194.00 520.00,194.00
             520.00,194.00 520.00,193.00 520.00,193.00 Z
           M 516.00,194.00
           C 516.07,199.14 522.29,202.88 526.00,205.79
             531.37,210.00 538.20,214.25 545.00,215.31
             552.31,216.91 555.79,214.74 562.00,215.31
             562.00,215.31 575.00,216.61 575.00,216.61
             580.41,217.57 592.68,221.86 597.00,221.00
             582.02,212.70 568.61,212.03 552.00,212.00
             549.33,212.00 546.62,212.08 544.00,211.47
             536.01,209.64 522.31,199.42 516.00,194.00 Z
           M 523.00,195.00
           C 524.25,199.19 530.36,202.23 534.00,204.40
             537.34,206.39 541.19,208.60 545.00,209.47
             551.01,210.85 566.13,208.67 581.00,212.48
             586.26,213.82 599.56,220.45 603.00,220.00
             598.22,216.82 586.11,209.09 581.00,207.63
             581.00,207.63 555.00,206.00 555.00,206.00
             543.23,205.86 533.17,200.37 523.00,195.00 Z
           M 601.00,223.00
           C 601.00,223.00 600.00,223.00 600.00,223.00
             600.00,223.00 601.00,224.00 601.00,224.00
             601.00,224.00 601.00,223.00 601.00,223.00 Z
           M 607.00,223.00
           C 607.00,223.00 606.00,223.00 606.00,223.00
             606.00,223.00 607.00,224.00 607.00,224.00
             607.00,224.00 607.00,223.00 607.00,223.00 Z
           M 608.00,224.00
           C 608.00,224.00 607.00,224.00 607.00,224.00
             607.00,224.00 608.00,225.00 608.00,225.00
             608.00,225.00 608.00,224.00 608.00,224.00 Z
           M 604.00,225.00
           C 604.00,225.00 603.00,225.00 603.00,225.00
             603.00,225.00 604.00,226.00 604.00,226.00
             604.00,226.00 604.00,225.00 604.00,225.00 Z
           M 609.00,225.00
           C 609.00,225.00 608.00,225.00 608.00,225.00
             608.00,225.00 609.00,226.00 609.00,226.00
             609.00,226.00 609.00,225.00 609.00,225.00 Z
           M 431.00,320.00
           C 431.00,320.00 465.00,317.09 465.00,317.09
             465.00,317.09 481.00,315.87 481.00,315.87
             487.27,314.78 489.73,309.34 499.00,306.94
             506.33,305.23 510.83,306.14 518.00,306.94
             531.75,308.16 544.68,308.57 554.54,320.04
             557.49,323.47 558.92,325.63 560.00,330.03
             564.91,329.40 579.54,328.87 584.00,330.03
             590.33,331.73 593.10,335.82 596.42,335.62
             598.66,335.49 605.32,330.73 615.00,328.67
             631.83,325.09 647.06,328.56 659.96,340.30
             664.78,344.69 664.67,347.25 666.85,349.69
             671.01,354.36 675.52,350.22 678.00,358.00
             678.00,358.00 668.00,356.00 668.00,356.00
             668.00,366.98 668.78,374.69 663.63,385.00
             654.77,402.72 643.21,406.22 625.00,406.00
             618.75,405.92 613.26,404.35 608.00,400.89
             590.87,389.64 588.75,370.70 589.00,352.00
             589.09,345.75 589.85,345.25 593.00,340.00
             593.00,340.00 583.00,335.00 583.00,335.00
             583.00,335.00 589.38,377.00 589.38,377.00
             591.74,386.01 598.51,392.41 598.96,402.00
             599.42,411.85 594.81,423.06 583.00,420.00
             583.00,420.00 587.00,413.00 587.00,413.00
             584.02,412.68 580.59,412.19 578.62,409.61
             575.60,405.68 579.77,401.25 585.96,402.15
             590.13,402.76 590.61,405.57 592.00,409.00
             593.44,395.78 587.33,395.03 583.72,383.00
             583.72,383.00 578.00,349.00 578.00,349.00
             578.00,349.00 576.00,352.00 576.00,352.00
             576.00,352.00 577.46,346.00 577.46,346.00
             578.04,340.10 575.11,339.67 582.00,334.00
             582.00,334.00 561.00,335.00 561.00,335.00
             561.00,345.27 561.49,352.63 556.12,362.00
             552.84,367.72 548.23,372.97 543.00,376.96
             538.40,380.47 533.55,382.93 528.00,384.56
             522.96,386.05 520.16,386.05 515.00,386.00
             482.96,385.63 468.62,349.77 480.00,323.00
             480.00,323.00 431.00,325.00 431.00,325.00
             431.00,325.00 431.00,320.00 431.00,320.00 Z
           M 507.00,312.30
           C 500.40,313.37 491.90,316.70 487.84,322.30
             486.28,324.45 484.85,329.34 484.16,332.00
             479.48,349.86 487.13,370.46 505.00,377.54
             508.96,379.10 513.73,380.23 518.00,379.82
             544.76,377.27 563.73,345.40 550.94,327.01
             542.79,315.30 529.00,313.95 516.00,312.92
             512.09,312.60 511.24,312.08 507.00,312.30 Z
           M 505.00,327.46
           C 514.79,326.11 523.75,326.88 532.00,332.79
             535.33,335.17 545.69,343.63 536.94,346.02
             532.56,347.22 528.40,346.79 524.00,347.09
             515.81,347.65 505.85,348.19 498.00,345.19
             496.59,344.65 495.28,344.02 494.04,343.15
             493.10,342.48 492.18,341.71 491.43,340.81
             484.11,332.01 499.21,328.75 505.00,327.46 Z
           M 405.00,333.00
           C 409.37,331.97 410.93,332.48 415.00,334.31
             417.31,335.36 419.92,336.70 421.82,338.39
             428.48,344.33 434.02,360.17 435.05,369.00
             435.44,372.39 436.41,377.66 435.85,380.94
             435.53,382.90 434.55,384.97 432.17,383.83
             428.57,382.12 429.25,375.38 428.84,372.00
             428.16,366.38 423.46,353.80 420.52,349.00
             414.79,339.65 408.84,342.56 405.00,333.00 Z
           M 530.00,341.00
           C 521.49,331.34 508.73,331.53 498.00,337.00
             507.06,343.48 519.61,341.00 530.00,341.00 Z
           M 649.00,341.00
           C 646.36,337.48 641.15,336.03 637.00,334.92
             624.57,331.60 604.60,335.54 597.26,347.00
             593.73,352.52 594.88,360.82 595.92,367.00
             599.29,386.99 613.00,403.69 635.00,399.53
             651.74,396.37 662.62,378.27 661.96,362.00
             661.69,355.22 660.87,345.50 653.00,344.00
             653.00,344.00 649.00,341.00 649.00,341.00 Z
           M 609.00,343.53
           C 618.76,341.95 623.50,346.26 629.98,353.00
             633.76,356.93 637.69,361.54 629.98,363.75
             622.97,365.76 609.70,368.59 603.04,365.23
             594.95,361.16 596.12,347.66 609.00,343.53 Z
           M 625.00,357.00
           C 625.00,357.00 617.00,351.38 617.00,351.38
             609.19,347.26 604.10,354.55 605.40,357.59
             607.72,363.01 621.33,359.15 625.00,357.00 Z
           M 421.00,386.00
           C 425.49,388.12 431.46,393.25 433.23,398.00
             434.80,402.05 433.24,405.52 433.23,409.00
             433.23,409.00 433.91,416.00 433.91,416.00
             433.91,416.00 433.18,424.00 433.18,424.00
             433.18,424.00 434.00,434.00 434.00,434.00
             434.00,434.00 434.00,440.00 434.00,440.00
             434.08,446.41 435.53,450.10 437.81,456.00
             439.16,459.49 441.37,464.92 443.33,468.00
             451.65,481.13 468.70,490.11 482.00,497.31
             502.36,508.32 525.41,517.89 549.00,518.00
             549.00,518.00 567.00,517.32 567.00,517.32
             568.98,517.48 578.17,518.59 575.83,522.44
             574.67,524.35 569.97,524.00 568.00,524.00
             568.00,524.00 544.00,524.00 544.00,524.00
             516.75,523.68 488.98,510.89 466.00,497.20
             455.36,490.86 444.40,483.63 437.55,473.00
             431.25,463.22 428.05,451.50 428.00,440.00
             428.00,440.00 427.00,426.00 427.00,426.00
             426.97,422.85 427.53,414.81 425.98,412.41
             425.98,412.41 419.43,406.87 419.43,406.87
             416.84,404.21 406.02,389.99 404.89,387.00
             404.04,384.75 404.03,382.37 404.00,380.00
             403.98,377.71 403.82,373.04 404.60,371.04
             406.80,365.36 414.66,363.88 417.40,366.02
             418.95,367.23 419.12,370.15 419.83,372.00
             422.25,378.32 424.70,378.98 421.00,386.00 Z
           M 413.00,372.00
           C 407.76,376.49 408.76,381.08 413.00,386.00
             413.00,386.00 414.09,379.00 414.09,379.00
             414.09,379.00 413.00,372.00 413.00,372.00 Z
           M 418.00,391.00
           C 418.00,391.00 417.00,391.00 417.00,391.00
             417.00,391.00 418.00,392.00 418.00,392.00
             418.00,392.00 418.00,391.00 418.00,391.00 Z
           M 419.00,392.00
           C 418.75,396.88 423.41,401.19 427.00,404.00
             426.68,398.38 422.81,395.82 419.00,392.00 Z
           M 554.00,397.48
           C 557.28,397.08 560.97,396.98 563.85,398.93
             568.66,402.18 566.26,405.15 561.98,406.65
             561.98,406.65 558.00,407.74 558.00,407.74
             546.90,409.53 542.60,400.81 554.00,397.48 Z
           M 660.00,405.00
           C 661.22,405.21 662.34,405.16 663.40,406.02
             665.80,407.95 665.03,416.92 665.00,420.00
             665.00,420.00 664.09,430.00 664.09,430.00
             664.09,430.00 662.91,455.00 662.91,455.00
             662.91,455.00 662.00,465.00 662.00,465.00
             662.00,465.00 662.00,477.00 662.00,477.00
             661.98,489.26 657.92,510.86 654.87,523.00
             652.67,531.79 648.88,545.17 644.68,553.00
             641.62,558.70 634.07,567.78 629.75,573.00
             622.44,581.85 612.56,593.27 604.00,600.71
             589.25,613.54 585.94,610.78 572.00,620.35
             572.00,620.35 542.00,644.13 542.00,644.13
             538.93,646.43 532.86,651.57 529.04,651.63
             524.39,651.71 521.99,644.60 520.42,641.00
             520.42,641.00 504.56,605.00 504.56,605.00
             496.30,590.15 492.61,593.50 483.08,579.00
             483.08,579.00 464.14,543.00 464.14,543.00
             464.14,543.00 457.37,532.00 457.37,532.00
             457.37,532.00 447.46,519.00 447.46,519.00
             443.22,512.05 438.90,503.58 435.92,496.00
             435.92,496.00 432.72,487.00 432.72,487.00
             432.72,487.00 425.32,470.00 425.32,470.00
             425.32,470.00 410.42,427.00 410.42,427.00
             408.92,421.86 404.46,414.30 411.00,412.00
             417.52,422.70 420.00,433.26 424.00,445.00
             430.30,463.48 439.66,491.48 448.86,508.00
             448.86,508.00 471.14,540.00 471.14,540.00
             471.14,540.00 490.21,576.00 490.21,576.00
             496.55,585.00 501.54,586.91 505.96,593.01
             511.16,600.20 516.84,613.60 520.42,622.00
             520.42,622.00 529.00,643.00 529.00,643.00
             535.54,640.46 542.50,634.09 548.00,629.58
             550.78,627.29 555.05,624.11 556.69,620.96
             556.69,620.96 562.88,594.00 562.88,594.00
             562.88,594.00 573.58,545.00 573.58,545.00
             573.58,545.00 579.26,520.02 579.26,520.02
             581.21,514.94 586.94,512.45 591.00,508.83
             596.94,503.52 602.17,496.92 606.13,490.00
             611.87,479.96 615.57,468.88 619.34,458.00
             621.23,452.56 621.80,447.08 628.00,446.00
             627.14,463.54 615.64,492.46 604.54,506.00
             601.51,509.69 597.75,513.38 594.00,516.33
             591.12,518.60 587.11,520.75 585.51,524.09
             585.51,524.09 580.12,547.00 580.12,547.00
             580.12,547.00 565.00,616.00 565.00,616.00
             578.60,605.50 581.53,607.98 591.00,601.25
             603.88,592.10 629.21,563.60 637.68,550.00
             642.82,541.73 646.96,525.69 649.37,516.00
             654.24,496.44 655.97,482.09 656.00,462.00
             656.00,462.00 656.96,449.00 656.96,449.00
             656.96,449.00 660.00,405.00 660.00,405.00 Z
           M 591.00,410.00
           C 591.00,410.00 590.00,410.00 590.00,410.00
             590.00,410.00 591.00,411.00 591.00,411.00
             591.00,411.00 591.00,410.00 591.00,410.00 Z
           M 590.00,411.00
           C 590.00,411.00 589.00,411.00 589.00,411.00
             589.00,411.00 590.00,412.00 590.00,412.00
             590.00,412.00 590.00,411.00 590.00,411.00 Z
           M 589.00,412.00
           C 589.00,412.00 588.00,412.00 588.00,412.00
             588.00,412.00 589.00,413.00 589.00,413.00
             589.00,413.00 589.00,412.00 589.00,412.00 Z
           M 544.00,434.43
           C 556.20,432.93 560.24,437.45 566.00,438.75
             566.00,438.75 576.00,439.39 576.00,439.39
             580.08,440.27 585.62,443.69 589.00,446.16
             591.88,448.26 600.40,454.63 599.26,458.69
             598.59,461.03 595.23,460.89 592.00,462.56
             592.00,462.56 587.00,465.81 587.00,465.81
             583.90,467.88 580.73,469.95 577.00,470.66
             568.56,472.28 563.63,470.18 556.00,467.90
             550.71,466.32 548.55,467.66 542.00,464.90
             537.37,462.94 531.46,458.01 527.00,455.08
             524.11,453.18 512.25,447.38 514.17,443.24
             515.29,440.81 519.65,439.99 522.00,439.37
             522.00,439.37 544.00,434.43 544.00,434.43 Z
           M 579.00,447.81
           C 569.88,443.38 570.79,447.00 564.00,445.61
             564.00,445.61 552.00,441.08 552.00,441.08
             546.92,439.81 537.63,441.62 533.00,444.00
             533.00,444.00 554.00,445.39 554.00,445.39
             554.00,445.39 561.00,447.81 561.00,447.81
             561.00,447.81 579.00,447.81 579.00,447.81 Z
           M 581.00,458.00
           C 571.49,452.83 565.93,455.64 560.00,454.42
             560.00,454.42 553.00,451.80 553.00,451.80
             549.06,450.63 538.75,449.52 535.00,451.00
             535.00,451.00 536.00,453.00 536.00,453.00
             536.00,453.00 542.00,453.00 542.00,453.00
             542.00,453.00 538.00,453.00 538.00,453.00
             544.98,461.21 550.20,459.52 559.00,461.76
             566.90,463.77 577.01,469.02 581.00,458.00 Z
           M 584.00,451.00
           C 584.00,451.00 583.00,451.00 583.00,451.00
             583.00,451.00 584.00,452.00 584.00,452.00
             584.00,452.00 584.00,451.00 584.00,451.00 Z
           M 543.00,453.00
           C 543.00,453.00 544.00,453.00 544.00,453.00
             544.00,453.00 543.00,454.00 543.00,454.00
             543.00,454.00 543.00,453.00 543.00,453.00 Z
           M 565.00,616.00
           C 565.00,616.00 564.00,616.00 564.00,616.00
             564.00,616.00 565.00,617.00 565.00,617.00
             565.00,617.00 565.00,616.00 565.00,616.00 Z" />
</svg>
